<?xml version="1.0" encoding="UTF-8" standalone="no"?>
<svg
   xmlns:dc="http://purl.org/dc/elements/1.1/"
   xmlns:cc="http://creativecommons.org/ns#"
   xmlns:rdf="http://www.w3.org/1999/02/22-rdf-syntax-ns#"
   xmlns="http://www.w3.org/2000/svg"
   xmlns:sodipodi="http://sodipodi.sourceforge.net/DTD/sodipodi-0.dtd"
   xmlns:inkscape="http://www.inkscape.org/namespaces/inkscape"
   id="Layer_1"
   version="1.1"
   viewBox="0 0 62 24"
   xml:space="preserve"
   inkscape:version="0.91 r13725"
   sodipodi:docname="icon.svg"
   width="62"
   height="24"><metadata
     id="metadata3463"><rdf:RDF><cc:Work
         rdf:about=""><dc:format>image/svg+xml</dc:format><dc:type
           rdf:resource="http://purl.org/dc/dcmitype/StillImage" /><dc:title></dc:title></cc:Work></rdf:RDF></metadata><defs
     id="defs3461" /><sodipodi:namedview
     pagecolor="#ffffff"
     bordercolor="#666666"
     borderopacity="1"
     objecttolerance="10"
     gridtolerance="10"
     guidetolerance="10"
     inkscape:pageopacity="0"
     inkscape:pageshadow="2"
     inkscape:window-width="1855"
     inkscape:window-height="1056"
     id="namedview3459"
     showgrid="false"
     inkscape:zoom="16"
     inkscape:cx="27.136103"
     inkscape:cy="18.902527"
     inkscape:window-x="65"
     inkscape:window-y="24"
     inkscape:window-maximized="1"
     inkscape:current-layer="g3429" /><style
     type="text/css"
     id="style3427">
	.st0{fill:#231F20;}
</style><g
     id="g3429"
     transform="translate(0,-28)"><g
       id="g3431"
       transform="translate(-30.272035,14.145811)"><path
         class="st0"
         d="m 42.392158,24.926237 c -0.541101,-0.185567 -0.781644,-0.128452 -0.891592,-0.923231 -0.100011,-0.722945 0.41311,-1.797802 1.166639,-1.717274 0.62666,0.06697 1.232089,0.576112 1.162464,1.361271 -0.0542,0.611253 -0.580674,0.901985 -0.97957,1.245065 -0.257805,0.22173 -0.111099,0.72998 0.19597,0.798886 0.461957,0.103662 0.950056,0.219935 1.360948,0.485413 0.304777,0.196918 1.388354,1.420746 1.007539,1.946905 -0.257492,0.355767 -2.151957,0.0847 -2.62126,0.09336 -0.591941,0.01093 -2.207588,0.350288 -2.710362,-0.0338 -0.44949,-0.343378 0.695631,-1.728389 1.050223,-1.888831 0.394788,-0.17863 0.868917,-0.246582 1.28331,-0.362388 0.552829,-0.154494 0.318456,-1.076791 -0.236124,-0.921809 -0.914453,0.255554 -2.073974,0.379103 -2.637557,1.306658 -0.352784,0.580619 -0.627663,1.999559 -0.227016,2.596814 0.449364,0.669882 1.839202,0.28955 2.485558,0.27762 1.307269,-0.02413 2.876763,0.199679 4.152128,-0.106193 0.1529,-0.03667 0.265174,-0.179397 0.310182,-0.333839 0.6246,-2.143266 -1.337337,-3.612793 -2.981447,-3.981726 0.06532,0.266296 0.130648,0.53259 0.195971,0.798886 0.989385,-0.85094 1.584666,-1.512501 1.041092,-2.940872 -0.436778,-1.147736 -1.355064,-1.511798 -2.451843,-1.235632 -0.958306,0.241299 -1.412161,1.14973 -1.459462,2.154295 -0.0696,1.478246 0.320249,1.881143 1.548086,2.302225 0.545899,0.187214 0.779582,-0.735431 0.236123,-0.921809 l 0,0 z"
         id="path3433"
         inkscape:connector-curvature="0"
         style="fill:#231f20" /><path
         class="st0"
         d="m 38.310247,25.574734 c -0.435532,-0.144009 -0.628362,-0.09707 -0.721108,-0.728057 -0.08436,-0.573962 0.321627,-1.431573 0.927144,-1.372418 0.503568,0.0492 0.992571,0.449972 0.94107,1.074474 -0.04009,0.486181 -0.461204,0.720646 -0.779583,0.995896 -0.205766,0.177892 -0.08511,0.580911 0.161843,0.633703 0.371522,0.07942 0.764107,0.168693 1.095532,0.377054 0.245834,0.154552 1.122789,1.120292 0.819957,1.540939 -0.204763,0.284426 -1.727494,0.08117 -2.104284,0.09108 -0.475252,0.0125 -1.770672,0.292619 -2.176543,-0.0094 -0.362856,-0.270028 0.548874,-1.37822 0.832702,-1.508024 0.316003,-0.144517 0.696335,-0.201577 1.028432,-0.296288 0.443041,-0.126351 0.249669,-0.857896 -0.194775,-0.731145 -0.732849,0.209002 -1.663222,0.314661 -2.110559,1.05552 -0.280018,0.463753 -0.492776,1.593312 -0.167714,2.065439 0.364587,0.529538 1.478458,0.218302 1.997399,0.204661 1.04957,-0.0276 2.311091,0.140195 3.333462,-0.111123 0.122568,-0.03013 0.21192,-0.144294 0.247194,-0.267335 0.48951,-1.707512 -1.094125,-2.862884 -2.416376,-3.145537 0.05395,0.211235 0.107897,0.422468 0.161844,0.633703 0.789675,-0.682704 1.263958,-1.212351 0.819465,-2.344139 -0.357164,-0.909424 -1.096568,-1.192875 -1.975705,-0.966317 -0.768141,0.197954 -1.127477,0.922906 -1.15982,1.72165 -0.04759,1.175375 0.26771,1.493094 1.255996,1.819873 0.439394,0.145287 0.621857,-0.589545 0.184427,-0.734183 l 0,0 z"
         id="path3433-3"
         inkscape:connector-curvature="0"
         style="fill:#231f20" /><path
         class="st0"
         d="m 46.507419,25.219862 c -0.435531,-0.144009 -0.628362,-0.09707 -0.721107,-0.728057 -0.08437,-0.573962 0.321627,-1.431573 0.927144,-1.372418 0.503568,0.0492 0.99257,0.449972 0.94107,1.074474 -0.04009,0.48618 -0.461205,0.720646 -0.779584,0.995896 -0.205766,0.177892 -0.08511,0.580911 0.161843,0.633703 0.371523,0.07942 0.764107,0.168693 1.095532,0.377054 0.245835,0.154551 1.122789,1.120291 0.819958,1.540939 -0.204764,0.284425 -1.727495,0.08117 -2.104285,0.09107 -0.475252,0.0125 -1.770672,0.292619 -2.176543,-0.0094 -0.362856,-0.270029 0.548874,-1.37822 0.832702,-1.508024 0.316003,-0.144518 0.696335,-0.201577 1.028432,-0.296288 0.443042,-0.126351 0.249669,-0.857896 -0.194775,-0.731145 -0.732849,0.209001 -1.663222,0.314662 -2.110559,1.05552 -0.280018,0.463753 -0.492775,1.593312 -0.167714,2.065439 0.364588,0.529538 1.478459,0.218303 1.9974,0.204661 1.04957,-0.0276 2.311091,0.140195 3.333461,-0.111123 0.122569,-0.03013 0.21192,-0.144294 0.247195,-0.267335 0.489509,-1.707513 -1.094126,-2.862885 -2.416376,-3.145537 0.05395,0.211235 0.107896,0.422468 0.161843,0.633703 0.789676,-0.682704 1.263959,-1.212351 0.819465,-2.344139 -0.357164,-0.909424 -1.096568,-1.192875 -1.975704,-0.966317 -0.768142,0.197954 -1.127478,0.922905 -1.159821,1.72165 -0.04759,1.175375 0.26771,1.493094 1.255996,1.819873 0.439394,0.145287 0.621858,-0.589545 0.184427,-0.734184 l 0,0 z"
         id="path3433-3-6"
         inkscape:connector-curvature="0"
         style="fill:#231f20" /><path
         style="fill:#000000;fill-opacity:0"
         d="m 16.930283,13.945003 c -0.642153,-0.03648 -0.78125,-0.08312 -0.78125,-0.261985 0,-0.119683 -0.110678,-0.434693 -0.245951,-0.700023 -0.269172,-0.527965 -0.239454,-0.695443 0.1234,-0.695443 0.130732,0 0.308033,-0.0753 0.394002,-0.167327 0.270835,-0.289931 1.209101,0.07357 1.759799,0.681778 0.59284,0.654751 0.619462,1.049157 0.07813,1.157424 -0.214844,0.04297 -0.425781,0.06729 -0.46875,0.05404 -0.04297,-0.01325 -0.429687,-0.04406 -0.859375,-0.06846 z"
         id="path3598"
         inkscape:connector-curvature="0"
         transform="translate(30.272035,13.854189)" /><path
         style="fill:#000000;fill-opacity:0"
         d="m 16.930283,13.945003 c -0.642153,-0.03648 -0.78125,-0.08312 -0.78125,-0.261985 0,-0.119683 -0.110678,-0.434693 -0.245951,-0.700023 -0.269172,-0.527965 -0.239454,-0.695443 0.1234,-0.695443 0.130732,0 0.308033,-0.0753 0.394002,-0.167327 0.270835,-0.289931 1.209101,0.07357 1.759799,0.681778 0.59284,0.654751 0.619462,1.049157 0.07813,1.157424 -0.214844,0.04297 -0.425781,0.06729 -0.46875,0.05404 -0.04297,-0.01325 -0.429687,-0.04406 -0.859375,-0.06846 z"
         id="path3600"
         inkscape:connector-curvature="0"
         transform="translate(30.272035,13.854189)" /><path
         style="fill:#000000;fill-opacity:0"
         d=""
         id="path3602"
         inkscape:connector-curvature="0"
         transform="translate(30.272035,13.854189)" /><rect
         style="fill:#000000;fill-opacity:0"
         id="rect3604"
         width="44.547726"
         height="15.821514"
         x="26.382948"
         y="-0.85990709" /><text
         xml:space="preserve"
         style="font-style:normal;font-weight:normal;font-size:22.17137146px;line-height:125%;font-family:sans-serif;letter-spacing:0px;word-spacing:0px;fill:#000000;fill-opacity:1;stroke:none;stroke-width:1px;stroke-linecap:butt;stroke-linejoin:miter;stroke-opacity:1"
         x="54.485622"
         y="33.729862"
         id="text3610"
         sodipodi:linespacing="125%"
         transform="scale(1.0278464,0.972908)"><tspan
           sodipodi:role="line"
           id="tspan3612"
           x="54.485622"
           y="33.729862">HR</tspan></text>
<path
         style="fill:#f9f9f9;fill-opacity:1"
         d="m 11.986658,23.490405 c -0.207306,-0.0791 -0.3125,-0.231561 -0.3125,-0.45292 l 0,-0.226586 -0.609375,-0.07381 C 9.4903496,22.546399 8.0541134,21.937904 7.0047634,21.01697 6.2225578,20.33049 3.9244411,18.022776 3.5121156,17.509737 3.2877664,17.230589 2.9681321,16.777195 2.8018173,16.502195 2.2016863,15.509884 1.9759358,14.780119 1.7964416,13.252195 1.7277916,12.66782 1.6590138,12.154539 1.6436021,12.11157 c -0.018487,-0.05154 -0.1653676,-0.07813 -0.4316965,-0.07813 -0.36536655,0 -0.41643187,-0.01622 -0.53809635,-0.170888 -0.0976452,-0.124136 -0.12433194,-0.221334 -0.097544,-0.355274 0.0634129,-0.317064 0.20046093,-0.411338 0.59797572,-0.411338 l 0.3557098,0 0.038043,-0.859375 C 1.6307136,8.8197723 1.867062,8.1462829 2.6402338,7.1811573 3.0462473,6.6743429 5.7246737,4.1073055 6.5513889,3.4326567 7.9598359,2.2832801 9.3267377,1.6425169 10.959471,1.3662776 l 0.652187,-0.1103424 0,-0.49035371 c 0,-0.26969455 0.02789,-0.54246871 0.06198,-0.60616478 0.08899,-0.16628789 0.390973,-0.21601018 0.613384,-0.10099687 0.221556,0.11457074 0.237617,0.1514778 0.293658,0.67478309 l 0.04381,0.40904047 0.727961,0.042005 c 2.172358,0.1253512 3.939058,0.7343038 5.509212,1.8989349 1.624885,1.2052268 2.816549,2.9059388 3.459177,4.9368461 0.279271,0.8825844 0.522811,2.2799642 0.437264,2.5089232 -0.03303,0.08841 -0.04842,0.280274 -0.03419,0.426367 l 0.02587,0.265625 0.399686,0 c 0.479542,0 0.649685,0.122759 0.649685,0.46875 0,0.337334 -0.172602,0.46875 -0.615653,0.46875 l -0.365654,0 -0.04345,0.822953 c -0.101927,1.930709 -0.542443,3.422974 -1.371439,4.645797 -0.388874,0.573614 -1.258312,1.439377 -2.636568,2.62542 -2.607697,2.244025 -2.776674,2.321529 -5.623491,2.579306 l -0.5,0.04527 -0.0191,0.19658 c -0.0105,0.10812 -0.06675,0.239522 -0.125,0.292006 -0.125275,0.11288 -0.380296,0.174936 -0.512153,0.124624 z m 2.635859,-1.896351 c 0.608117,-0.154235 1.494161,-0.558018 2.059304,-0.938452 1.187114,-0.799123 3.350071,-2.826342 3.904274,-3.659257 0.759986,-1.142189 1.212189,-2.718814 1.212811,-4.228525 l 2.52e-4,-0.609375 -0.401714,0 c -0.359536,0 -0.415314,-0.01729 -0.53125,-0.164678 -0.164348,-0.208935 -0.164348,-0.399208 0,-0.608143 0.113157,-0.143857 0.175061,-0.164679 0.489583,-0.164679 0.198026,0 0.373806,-0.01376 0.390623,-0.03058 0.01682,-0.01682 0.0084,-0.214476 -0.01862,-0.439243 -0.02898,-0.240723 -0.0245,-0.473628 0.0109,-0.566738 C 21.925083,9.6940985 21.090023,7.3263848 20.252653,5.9709454 18.625377,3.3368985 16.532132,2.1602292 13.471033,2.1588139 l -0.796875,-3.685e-4 0,0.2728213 c 0,0.4818584 -0.364772,0.7458468 -0.747535,0.540998 -0.12456,-0.066663 -0.252465,-0.3720726 -0.252465,-0.6028332 0,-0.1623107 0.04897,-0.1632685 -0.893505,0.017476 C 9.6807134,2.597849 8.6048627,3.0911455 7.601164,3.844759 6.4313751,4.7230795 3.8856586,7.2014573 3.3968817,7.937831 2.8953538,8.6934148 2.6116578,9.6528217 2.6116578,10.59331 l 0,0.502635 0.305576,0 c 0.4007535,0 0.594424,0.149089 0.594424,0.457589 0,0.315646 -0.1612103,0.469416 -0.5162155,0.492391 l -0.2900345,0.01877 0.017495,0.40625 c 0.073561,1.70809 0.370537,2.846139 0.9900848,3.794124 0.2993758,0.458081 3.8612509,4.021161 4.4143571,4.41585 0.4513575,0.322081 1.01867,0.596488 1.5468532,0.748206 0.4296496,0.123414 1.4510746,0.291235 1.7746056,0.291569 l 0.243396,2.5e-4 -0.03599,-0.47593 c -0.04287,-0.566823 0.01463,-0.754468 0.250116,-0.816255 0.260112,-0.06825 0.408571,-0.03069 0.564711,0.142853 0.113603,0.126268 0.140788,0.230694 0.141478,0.543442 0.0016,0.718257 -0.02971,0.692408 0.785285,0.648731 0.387382,-0.02076 0.938506,-0.09714 1.224721,-0.169732 l 0,1e-6 z"
         id="path3614"
         inkscape:connector-curvature="0"
         transform="translate(30.272035,13.854189)" /><path
         style="fill:#f9f9f9;fill-opacity:1"
         d="M 11.372809,19.75176 C 8.6654893,19.261273 6.0253024,16.985955 4.8654932,14.143744 4.3718927,12.934134 4.2085657,12.091535 4.2141429,10.783445 4.2203562,9.326184 4.4922703,8.3069407 5.1901725,7.124895 5.5682781,6.4844928 6.4818197,5.5135821 7.0874107,5.108513 7.9228831,4.5496804 8.8771515,4.1527218 9.9241577,3.928477 10.751658,3.7512455 13.093085,3.7685999 13.967183,3.9584435 c 3.388497,0.7359402 5.520608,2.8329615 5.954247,5.8562519 0.08373,0.5837816 0.08231,2.8368516 -0.0022,3.4442636 -0.243468,1.750465 -0.896251,3.195389 -1.944547,4.304222 -0.847858,0.896819 -1.748738,1.458126 -3.009299,1.874987 -1.179879,0.39018 -2.522835,0.507404 -3.592607,0.313592 l 1e-6,0 z m 2.735042,-1.072358 c 1.393605,-0.279943 2.603903,-1.003463 3.441274,-2.057207 0.333239,-0.419345 1.00004,-1.61791 1.000028,-1.797533 -4e-6,-0.05216 -0.358997,-0.07623 -1.28125,-0.08589 -1.031141,-0.01081 -1.281245,0.0028 -1.281245,0.0697 0,0.04572 -0.05568,0.153909 -0.123735,0.240426 -0.19324,0.245663 -0.846412,0.313642 -2.813765,0.292843 -0.910938,-0.0096 -2.05,0.0044 -2.53125,0.03113 -0.8673308,0.04822 -0.8776314,0.04722 -1.1751824,-0.11414 -0.277119,-0.150275 -0.3592275,-0.162782 -1.0686952,-0.162782 -0.9811455,0 -1.7248726,0.06273 -1.7248726,0.145483 0,0.125544 0.6957276,0.970792 1.179483,1.43297 1.2912357,1.233639 2.8866612,1.987561 4.5080172,2.130273 0.44084,0.0388 1.361112,-0.02281 1.871193,-0.125269 z m -1.397199,-4.239707 1.005244,0 -0.02819,-0.439186 c -0.03371,-0.525066 0.06475,-1.0481 0.269933,-1.434 l 0.150278,-0.282635 -0.138753,-0.09023 c -0.07631,-0.04963 -0.391877,-0.162584 -0.701252,-0.251019 -0.966315,-0.276219 -1.022827,-0.517621 -0.285338,-1.21888 0.390661,-0.371468 0.51061,-0.528122 0.565158,-0.7381008 0.204106,-0.785673 -0.41685,-1.5771988 -1.23732,-1.5771988 -0.696491,0 -1.26148,1.0019594 -1.074061,1.9047536 0.08861,0.42682 0.252467,0.607107 0.653951,0.719516 0.342608,0.09592 0.472515,0.233162 0.514086,0.5431 0.04344,0.323894 -0.07172,0.415584 -0.730226,0.581407 -0.526462,0.132571 -1.0625,0.348941 -1.0625,0.428873 0,0.02282 0.09954,0.18151 0.221207,0.352632 0.276255,0.388558 0.427354,0.890027 0.388866,1.290571 l -0.02908,0.302668 0.256379,-0.04614 c 0.141009,-0.02537 0.70874,-0.04613 1.261624,-0.04613 z m -4.2083403,-0.05759 0.3594039,-0.0049 -2.89e-5,-0.197627 c -4.7e-5,-0.320874 0.1716729,-1.123632 0.3046782,-1.424313 0.1385241,-0.313156 0.1750032,-0.272257 -0.3672072,-0.411701 -0.3566051,-0.09171 -0.4375,-0.159679 -0.4375,-0.36759 0,-0.123128 0.097714,-0.259394 0.3708628,-0.517179 C 9.2611476,10.95989 9.3468748,10.566519 9.0387724,10.053504 8.9040621,9.8292015 8.476699,9.5958276 8.2013,9.5961784 7.6800846,9.5968422 7.2650272,10.226125 7.3108768,10.94618 c 0.029308,0.460275 0.1251346,0.59587 0.5167673,0.731229 0.3327442,0.115005 0.5158869,0.360975 0.4366118,0.586393 -0.051359,0.146038 -0.134086,0.189641 -0.6301605,0.332134 -0.7133195,0.204895 -0.8201446,0.275543 -1.1807418,0.780874 -0.3610582,0.505979 -0.4298118,0.835514 -0.2081589,0.997704 0.1313678,0.09613 0.2445367,0.102797 1.0227131,0.06029 0.48125,-0.02629 1.0367317,-0.05 1.2344039,-0.0527 z m 1.9151033,-0.07597 c 0.123516,-0.08651 0.141555,-0.142362 0.116831,-0.361707 -0.01608,-0.142667 -0.105336,-0.379945 -0.198347,-0.527283 -0.135883,-0.215252 -0.186212,-0.253695 -0.256146,-0.195655 -0.1276867,0.10597 -0.4055953,0.689074 -0.4055953,0.851014 0,0.311292 0.4364923,0.448497 0.7432573,0.233631 z m 4.819243,-0.337196 c 0,-0.237448 -0.142314,-0.583202 -0.354617,-0.861544 l -0.163248,-0.21403 -0.209818,0.33277 c -0.225617,0.357828 -0.266335,0.6201 -0.115682,0.745131 0.106253,0.08818 0.4147,0.171225 0.67149,0.180783 0.151117,0.0056 0.171875,-0.01649 0.171875,-0.18311 z m 3.390625,-0.0079 c 0.178264,-0.09286 0.162346,-0.476608 -0.03329,-0.802575 -0.383725,-0.639354 -0.816315,-0.975651 -1.451083,-1.128081 -0.733952,-0.176246 -0.778217,-0.392605 -0.195548,-0.955785 0.325287,-0.314407 0.406364,-0.433285 0.442775,-0.649213 C 17.472742,9.9354753 17.22334,9.5269994 16.710929,9.3129507 16.366283,9.168982 16.108712,9.2336258 15.839446,9.5316705 15.571925,9.827785 15.461213,10.200694 15.507298,10.650449 c 0.04064,0.396626 0.186274,0.581576 0.541826,0.688102 0.565071,0.169299 0.585386,0.718823 0.03128,0.846213 -0.103125,0.02371 -0.29208,0.07052 -0.419898,0.104021 l -0.232399,0.06091 0.20932,0.327219 c 0.247996,0.387681 0.411727,0.840286 0.411727,1.138147 l 0,0.214752 0.828125,0.02098 c 0.95683,0.02424 1.593853,-0.0084 1.75,-0.08978 z M 6.032436,12.585381 C 6.1532751,12.459258 6.4151216,12.282926 6.6143171,12.193532 L 6.9764906,12.030999 6.8096992,11.735347 C 6.6609964,11.471759 6.6430696,11.375303 6.6444001,10.845945 6.646302,10.08935 6.7802541,9.6740597 7.1376814,9.3166323 7.7093688,8.744945 8.8415543,8.7327592 9.3344941,9.292988 c 0.3128131,0.3555138 0.5275157,0.910449 0.5265531,1.360966 -6.481e-4,0.303421 -0.2172483,0.848908 -0.3956935,0.996519 -0.1438808,0.119019 -0.1311192,0.157717 0.078048,0.236669 0.1584495,0.05981 0.2355172,0.04154 0.6012749,-0.142548 0.230741,-0.116132 0.456671,-0.211149 0.502067,-0.211149 0.133887,0 0.171754,-0.124775 0.07232,-0.238313 -0.27835,-0.317843 -0.326268,-0.519282 -0.322429,-1.3554366 0.0044,-0.9666109 0.119079,-1.341507 0.56029,-1.8322392 0.328783,-0.3656863 0.747918,-0.5640707 1.30082,-0.6157014 1.008951,-0.094217 1.777925,0.5139587 2.070603,1.6376257 0.180968,0.6947823 0.09665,1.1582205 -0.314948,1.7311395 -0.122558,0.170594 -0.21387,0.316714 -0.202915,0.324711 0.01096,0.008 0.208527,0.118428 0.439047,0.2454 0.23052,0.126972 0.436086,0.258299 0.456813,0.291836 0.04548,0.07359 0.280704,0.07864 0.391373,0.0084 0.06178,-0.0392 0.04527,-0.113144 -0.07301,-0.327167 -0.194581,-0.352074 -0.253336,-0.847472 -0.165204,-1.392941 0.158585,-0.9815231 0.711174,-1.4773276 1.646526,-1.4773276 0.497752,0 0.87047,0.1794357 1.12917,0.5436108 0.521213,0.7337176 0.549969,1.5405808 0.077,2.1606708 l -0.15585,0.20433 0.402763,0.208822 c 0.221519,0.114853 0.561217,0.364765 0.754883,0.555362 l 0.352121,0.346539 -0.03973,-1.119042 C 18.97509,9.9887285 18.958287,9.8203288 18.807336,9.2383119 18.232286,7.021106 16.473598,5.4933246 13.842386,4.925234 13.114831,4.7681515 11.167452,4.7705772 10.438646,4.929474 7.6244837,5.5430267 5.7835997,7.1889584 5.2566384,9.5626998 5.0591717,10.452205 5.1452799,11.841275 5.4677045,12.967554 l 0.097436,0.340359 0.1237941,-0.246609 c 0.068087,-0.135635 0.2226624,-0.3498 0.3435015,-0.475923 z"
         id="path3616"
         inkscape:connector-curvature="0"
         transform="translate(30.272035,13.854189)" /><path
         style="fill:#f9f9f9;fill-opacity:1"
         d="M 11.372809,19.75176 C 8.6654893,19.261273 6.0253024,16.985955 4.8654932,14.143744 4.3718927,12.934134 4.2085657,12.091535 4.2141429,10.783445 4.2203562,9.326184 4.4922703,8.3069407 5.1901725,7.124895 5.5682781,6.4844928 6.4818197,5.5135821 7.0874107,5.108513 7.9228831,4.5496804 8.8771515,4.1527218 9.9241577,3.928477 10.751658,3.7512455 13.093085,3.7685999 13.967183,3.9584435 c 3.388497,0.7359402 5.520608,2.8329615 5.954247,5.8562519 0.08373,0.5837816 0.08231,2.8368516 -0.0022,3.4442636 -0.243468,1.750465 -0.896251,3.195389 -1.944547,4.304222 -0.847858,0.896819 -1.748738,1.458126 -3.009299,1.874987 -1.179879,0.39018 -2.522835,0.507404 -3.592607,0.313592 l 1e-6,0 z m 2.735042,-1.072358 c 2.528115,-0.50784 4.205422,-2.307292 4.796653,-5.145957 0.117666,-0.56495 0.153646,-2.331145 0.06812,-3.34375 C 18.747675,7.5265162 16.844325,5.5733661 13.842386,4.925234 13.114831,4.7681515 11.167452,4.7705772 10.438646,4.9294737 6.4171499,5.8062532 4.4415151,8.7957421 5.3730673,12.594602 c 0.8195261,3.342018 3.6796556,5.929818 6.8635907,6.210069 0.44084,0.0388 1.361112,-0.02281 1.871193,-0.125269 z"
         id="path3618"
         inkscape:connector-curvature="0"
         transform="translate(30.272035,13.854189)" /><path
         style="fill:#f9f9f9;fill-opacity:1"
         d="M 11.372809,19.75176 C 8.6654893,19.261273 6.0253024,16.985955 4.8654932,14.143744 4.3718927,12.934134 4.2085657,12.091535 4.2141429,10.783445 4.2203562,9.326184 4.4922703,8.3069407 5.1901725,7.124895 5.5682781,6.4844928 6.4818197,5.5135821 7.0874107,5.108513 7.9228831,4.5496804 8.8771515,4.1527218 9.9241577,3.928477 10.751658,3.7512455 13.093085,3.7685999 13.967183,3.9584435 c 3.388497,0.7359402 5.520608,2.8329615 5.954247,5.8562519 0.08373,0.5837816 0.08231,2.8368516 -0.0022,3.4442636 -0.243468,1.750465 -0.896251,3.195389 -1.944547,4.304222 -0.847858,0.896819 -1.748738,1.458126 -3.009299,1.874987 -1.179879,0.39018 -2.522835,0.507404 -3.592607,0.313592 l 1e-6,0 z m 2.735042,-1.072358 c 2.528087,-0.507833 4.21102,-2.313693 4.795668,-5.145957 0.118846,-0.575733 0.153787,-2.22471 0.06953,-3.28125 C 18.756083,7.531559 16.876804,5.5803785 13.842386,4.925234 13.114831,4.7681515 11.167452,4.7705772 10.438646,4.9294737 7.6244837,5.5430264 5.7835997,7.1889582 5.2566384,9.5626996 c -0.061377,0.2764759 -0.09714,0.7408724 -0.096418,1.2519954 0.00566,4.002413 3.2380756,7.652123 7.0764374,7.989976 0.44084,0.0388 1.361112,-0.02281 1.871193,-0.125269 z"
         id="path3620"
         inkscape:connector-curvature="0"
         transform="translate(30.272035,13.854189)" /><path
         style="fill:#f9f9f9;fill-opacity:1"
         d="m 11.986658,23.490405 c -0.207306,-0.0791 -0.3125,-0.231561 -0.3125,-0.45292 l 0,-0.226586 -0.609375,-0.07381 C 9.4903496,22.546399 8.0541134,21.937904 7.0047634,21.01697 6.2225578,20.33049 3.9244411,18.022776 3.5121156,17.509737 3.2877664,17.230589 2.9681321,16.777195 2.8018173,16.502195 2.2016863,15.509884 1.9759358,14.780119 1.7964416,13.252195 1.7277916,12.66782 1.6590138,12.154539 1.6436021,12.11157 c -0.018487,-0.05154 -0.1653676,-0.07813 -0.4316965,-0.07813 -0.36536655,0 -0.41643187,-0.01622 -0.53809635,-0.170888 -0.0976452,-0.124136 -0.12433194,-0.221334 -0.097544,-0.355274 0.0634129,-0.317064 0.20046093,-0.411338 0.59797572,-0.411338 l 0.3557098,0 0.038043,-0.859375 C 1.6307136,8.8197723 1.867062,8.1462829 2.6402338,7.1811573 3.0462473,6.6743429 5.7246737,4.1073055 6.5513889,3.4326567 7.9598359,2.2832801 9.3267377,1.6425169 10.959471,1.3662776 l 0.652187,-0.1103424 0,-0.49035371 c 0,-0.26969455 0.02789,-0.54246871 0.06198,-0.60616478 0.08899,-0.16628789 0.390973,-0.21601018 0.613384,-0.10099687 0.221556,0.11457074 0.237617,0.1514778 0.293658,0.67478309 l 0.04381,0.40904047 0.727961,0.042005 c 2.172358,0.1253512 3.939058,0.7343038 5.509212,1.8989349 1.624885,1.2052268 2.816549,2.9059388 3.459177,4.9368461 0.279271,0.8825844 0.522811,2.2799642 0.437264,2.5089232 -0.03303,0.08841 -0.04842,0.280274 -0.03419,0.426367 l 0.02587,0.265625 0.399686,0 c 0.479542,0 0.649685,0.122759 0.649685,0.46875 0,0.337334 -0.172602,0.46875 -0.615653,0.46875 l -0.365654,0 -0.04345,0.822953 c -0.101927,1.930709 -0.542443,3.422974 -1.371439,4.645797 -0.388874,0.573614 -1.258312,1.439377 -2.636568,2.62542 -2.607697,2.244025 -2.776674,2.321529 -5.623491,2.579306 l -0.5,0.04527 -0.0191,0.19658 c -0.0105,0.10812 -0.06675,0.239522 -0.125,0.292006 -0.125275,0.11288 -0.380296,0.174936 -0.512153,0.124624 z m 2.635859,-1.896351 c 0.608117,-0.154235 1.494161,-0.558018 2.059304,-0.938452 1.175334,-0.791193 3.35022,-2.826565 3.894692,-3.644855 0.766215,-1.151552 1.22177,-2.732782 1.222393,-4.242927 l 2.52e-4,-0.609375 -0.401714,0 c -0.359536,0 -0.415314,-0.01729 -0.53125,-0.164678 -0.164348,-0.208935 -0.164348,-0.399208 0,-0.608143 0.113157,-0.143857 0.175061,-0.164679 0.489583,-0.164679 0.198026,0 0.373806,-0.01376 0.390623,-0.03058 0.01682,-0.01682 0.0084,-0.214476 -0.01862,-0.439243 -0.02898,-0.240723 -0.0245,-0.473628 0.0109,-0.566738 C 21.869607,9.8400117 21.409151,8.2538035 20.823996,7.0334454 19.881216,5.0672509 18.462481,3.5242984 16.97973,2.8525955 15.975703,2.3977604 14.770305,2.1594146 13.471033,2.1588139 l -0.796875,-3.685e-4 0,0.2728213 c 0,0.4818584 -0.364772,0.7458468 -0.747535,0.540998 -0.12456,-0.066663 -0.252465,-0.3720726 -0.252465,-0.6028332 0,-0.1623107 0.04897,-0.1632685 -0.893505,0.017476 C 9.6807134,2.597849 8.6048627,3.0911455 7.601164,3.844759 6.4313751,4.7230795 3.8856586,7.2014573 3.3968817,7.937831 2.8953538,8.6934148 2.6116578,9.6528217 2.6116578,10.59331 l 0,0.502635 0.305576,0 c 0.4007535,0 0.594424,0.149089 0.594424,0.457589 0,0.315646 -0.1612103,0.469416 -0.5162155,0.492391 l -0.2900345,0.01877 0.017495,0.40625 c 0.073561,1.70809 0.370537,2.846139 0.9900848,3.794124 0.2993758,0.458081 3.8612509,4.021161 4.4143571,4.41585 0.4513575,0.322081 1.01867,0.596488 1.5468532,0.748206 0.4296496,0.123414 1.4510746,0.291235 1.7746056,0.291569 l 0.243396,2.5e-4 -0.03599,-0.47593 c -0.04287,-0.566823 0.01463,-0.754468 0.250116,-0.816255 0.260112,-0.06825 0.408571,-0.03069 0.564711,0.142853 0.113603,0.126268 0.140788,0.230694 0.141478,0.543442 0.0016,0.718257 -0.02971,0.692408 0.785285,0.648731 0.387382,-0.02076 0.938506,-0.09714 1.224721,-0.169732 l 0,1e-6 z"
         id="path3622"
         inkscape:connector-curvature="0"
         transform="translate(30.272035,13.854189)" /><path
         style="fill:#f9f9f9;fill-opacity:1"
         d="m 11.986658,23.490405 c -0.207306,-0.0791 -0.3125,-0.231561 -0.3125,-0.45292 l 0,-0.226586 -0.609375,-0.07381 C 9.4903496,22.546399 8.0541134,21.937904 7.0047634,21.01697 6.2225578,20.33049 3.9244411,18.022776 3.5121156,17.509737 3.2877664,17.230589 2.9681321,16.777195 2.8018173,16.502195 2.2016863,15.509884 1.9759358,14.780119 1.7964416,13.252195 1.7277916,12.66782 1.6590138,12.154539 1.6436021,12.11157 c -0.018487,-0.05154 -0.1653676,-0.07813 -0.4316965,-0.07813 -0.36536655,0 -0.41643187,-0.01622 -0.53809635,-0.170888 -0.0976452,-0.124136 -0.12433194,-0.221334 -0.097544,-0.355274 0.0634129,-0.317064 0.20046093,-0.411338 0.59797572,-0.411338 l 0.3557098,0 0.038043,-0.859375 C 1.6307136,8.8197723 1.867062,8.1462829 2.6402338,7.1811573 3.0462473,6.6743429 5.7246737,4.1073055 6.5513889,3.4326567 7.9575809,2.2851202 9.3277984,1.640822 10.939783,1.3691627 l 0.671875,-0.1132275 0,-0.49035371 c 0,-0.26969455 0.02789,-0.54246871 0.06198,-0.60616478 0.08899,-0.16628789 0.390973,-0.21601018 0.613384,-0.10099687 0.221556,0.11457074 0.237617,0.1514778 0.293658,0.67478309 l 0.04381,0.40904047 0.727961,0.042005 c 2.172358,0.1253512 3.939058,0.7343038 5.509212,1.8989349 1.624885,1.2052268 2.816549,2.9059388 3.459177,4.9368461 0.279271,0.8825844 0.522811,2.2799642 0.437264,2.5089232 -0.03303,0.08841 -0.04842,0.280274 -0.03419,0.426367 l 0.02587,0.265625 0.399686,0 c 0.479542,0 0.649685,0.122759 0.649685,0.46875 0,0.337334 -0.172602,0.46875 -0.615653,0.46875 l -0.365654,0 -0.04345,0.822953 c -0.101927,1.930709 -0.542443,3.422974 -1.371439,4.645797 -0.388874,0.573614 -1.258312,1.439377 -2.636568,2.62542 -2.607697,2.244025 -2.776674,2.321529 -5.623491,2.579306 l -0.5,0.04527 -0.0191,0.19658 c -0.0105,0.10812 -0.06675,0.239522 -0.125,0.292006 -0.125275,0.11288 -0.380296,0.174936 -0.512153,0.124624 z m 2.635859,-1.896351 c 0.608117,-0.154235 1.494161,-0.558018 2.059304,-0.938452 1.187114,-0.799123 3.350071,-2.826342 3.904274,-3.659257 0.759986,-1.142189 1.212189,-2.718814 1.212811,-4.228525 l 2.52e-4,-0.609375 -0.401714,0 c -0.359536,0 -0.415314,-0.01729 -0.53125,-0.164678 -0.164348,-0.208935 -0.164348,-0.399208 0,-0.608143 0.113157,-0.143857 0.175061,-0.164679 0.489583,-0.164679 0.198026,0 0.373806,-0.01376 0.390623,-0.03058 0.01682,-0.01682 0.0084,-0.214476 -0.01862,-0.439243 -0.02898,-0.240723 -0.0245,-0.473628 0.0109,-0.566738 C 21.925083,9.6940985 21.090023,7.3263848 20.252653,5.9709454 18.625377,3.3368985 16.532132,2.1602292 13.471033,2.1588139 l -0.796875,-3.685e-4 0,0.2728213 c 0,0.4818584 -0.364772,0.7458468 -0.747535,0.540998 -0.12456,-0.066663 -0.252465,-0.3720726 -0.252465,-0.6028332 0,-0.1623107 0.04897,-0.1632685 -0.893505,0.017476 C 9.6807134,2.597849 8.6048627,3.0911455 7.601164,3.844759 6.4313751,4.7230795 3.8856586,7.2014573 3.3968817,7.937831 2.8953538,8.6934148 2.6116578,9.6528217 2.6116578,10.59331 l 0,0.502635 0.305576,0 c 0.4007535,0 0.594424,0.149089 0.594424,0.457589 0,0.315646 -0.1612103,0.469416 -0.5162155,0.492391 l -0.2900345,0.01877 0.017495,0.40625 c 0.073561,1.70809 0.370537,2.846139 0.9900848,3.794124 0.2993758,0.458081 3.8612509,4.021161 4.4143571,4.41585 0.4513575,0.322081 1.01867,0.596488 1.5468532,0.748206 0.4296496,0.123414 1.4510746,0.291235 1.7746056,0.291569 l 0.243396,2.5e-4 -0.03599,-0.47593 c -0.04287,-0.566823 0.01463,-0.754468 0.250116,-0.816255 0.260112,-0.06825 0.408571,-0.03069 0.564711,0.142853 0.113603,0.126268 0.140788,0.230694 0.141478,0.543442 0.0016,0.718257 -0.02971,0.692408 0.785285,0.648731 0.387382,-0.02076 0.938506,-0.09714 1.224721,-0.169732 l 0,1e-6 z"
         id="path3624"
         inkscape:connector-curvature="0"
         transform="translate(30.272035,13.854189)" /><path
         style="fill:#f9f9f9;fill-opacity:1"
         d="m 2.616592,10.934487 c 0.003,-0.07281 0.017809,-0.08762 0.03776,-0.03776 0.018054,0.04512 0.015834,0.09902 -0.00493,0.119791 -0.020768,0.02077 -0.03554,-0.01615 -0.032826,-0.08203 z"
         id="path3626"
         inkscape:connector-curvature="0"
         transform="translate(30.272035,13.854189)" /><path
         style="fill:#f9f9f9;fill-opacity:1"
         d="m 27.986658,11.095945 0,-7.8124996 1.09375,0 1.09375,0 0,3.21875 0,3.21875 4.125,0 4.125,0 0,-3.21875 0,-3.21875 1.09375,0 1.09375,0 0,7.8124996 0,7.8125 -1.09375,0 -1.09375,0 0,-3.71875 0,-3.71875 -4.125,0 -4.125,0 0,3.71875 0,3.71875 -1.09375,0 -1.09375,0 0,-7.8125 z"
         id="path3628"
         inkscape:connector-curvature="0"
         transform="translate(30.272035,13.854189)" /><path
         style="fill:#f9f9f9;fill-opacity:1"
         d="m 45.111658,11.095945 0,-7.8124996 3.015625,3.688e-4 c 3.811399,4.656e-4 4.413128,0.075691 5.640625,0.7051671 0.92055,0.4720701 1.548418,1.2602378 1.854453,2.3279089 0.190645,0.6651108 0.206667,2.1041946 0.02986,2.682038 -0.356399,1.1647938 -1.160106,2.0247328 -2.26151,2.4197398 -0.22223,0.0797 -0.402642,0.159224 -0.400917,0.176719 0.0017,0.0175 0.167803,0.109767 0.36906,0.205049 0.479866,0.227186 1.149844,0.901851 1.658903,1.670509 0.216272,0.326563 0.862927,1.479688 1.43701,2.5625 0.574083,1.082813 1.154337,2.172657 1.289454,2.421875 l 0.245667,0.453125 -1.174926,0 -1.174927,0 -1.178454,-2.234375 c -1.316773,-2.496631 -1.545313,-2.877297 -2.063101,-3.436393 -0.725232,-0.78309 -1.354167,-0.94873 -3.614948,-0.952051 l -1.484375,-0.0022 0,3.3125 0,3.3125 -1.09375,0 -1.09375,0 0,-7.8125 z m 6.08044,-0.591122 c 0.905703,-0.161459 1.656536,-0.6457982 1.97802,-1.2759591 0.178037,-0.3489806 0.314509,-0.963536 0.315616,-1.4212629 0.0029,-1.1882455 -0.490797,-2.0575561 -1.417392,-2.4959056 -0.597491,-0.2826585 -1.113142,-0.34075 -3.024682,-0.34075 l -1.744502,0 0,2.8125 0,2.8124996 1.703125,-0.0022 c 1.168561,-0.0015 1.855883,-0.02941 2.189815,-0.08894 z"
         id="path3630"
         inkscape:connector-curvature="0"
         transform="translate(30.272035,13.854189)" /><path
         style="fill:#f9f9f9;fill-opacity:1"
         d="M 11.372809,19.75176 C 8.6654893,19.261273 6.0253024,16.985955 4.8654932,14.143744 4.3718927,12.934134 4.2085657,12.091535 4.2141429,10.783445 4.2203562,9.326184 4.4922703,8.3069407 5.1901725,7.124895 5.5682781,6.4844928 6.4818197,5.5135821 7.0874107,5.108513 7.9228831,4.5496804 8.8771515,4.1527218 9.9241577,3.928477 10.751658,3.7512455 13.093085,3.7685999 13.967183,3.9584435 c 3.389735,0.736209 5.52045,2.8318569 5.954247,5.8562519 0.08373,0.5837816 0.08231,2.8368516 -0.0022,3.4442636 -0.243468,1.750465 -0.896251,3.195389 -1.944547,4.304222 -0.847858,0.896819 -1.748738,1.458126 -3.009299,1.874987 -1.179879,0.39018 -2.522835,0.507404 -3.592607,0.313592 l 1e-6,0 z m 2.735042,-1.072358 c 2.528087,-0.507833 4.21102,-2.313693 4.795668,-5.145957 0.118846,-0.575733 0.153787,-2.22471 0.06953,-3.28125 C 18.756182,7.5328019 16.875418,5.5800792 13.842386,4.925234 13.114831,4.7681515 11.167452,4.7705772 10.438646,4.9294737 6.4171499,5.8062532 4.4415151,8.7957421 5.3730673,12.594602 c 0.8195261,3.342018 3.6796556,5.929818 6.8635907,6.210069 0.44084,0.0388 1.361112,-0.02281 1.871193,-0.125269 z"
         id="path3632"
         inkscape:connector-curvature="0"
         transform="translate(30.272035,13.854189)" /><path
         style="fill:#f9f9f9;fill-opacity:1"
         d="M 11.372809,19.75176 C 8.6654893,19.261273 6.0253024,16.985955 4.8654932,14.143744 4.3718927,12.934134 4.2085657,12.091535 4.2141429,10.783445 4.2203562,9.326184 4.4922703,8.3069407 5.1901725,7.124895 5.5682781,6.4844928 6.4818197,5.5135821 7.0874107,5.108513 7.9228831,4.5496804 8.8771515,4.1527218 9.9241577,3.928477 10.751658,3.7512455 13.093085,3.7685999 13.967183,3.9584435 c 3.388497,0.7359402 5.520608,2.8329615 5.954247,5.8562519 0.08373,0.5837816 0.08231,2.8368516 -0.0022,3.4442636 -0.243468,1.750465 -0.896251,3.195389 -1.944547,4.304222 -0.847858,0.896819 -1.748738,1.458126 -3.009299,1.874987 -1.179879,0.39018 -2.522835,0.507404 -3.592607,0.313592 l 1e-6,0 z m 2.735042,-1.072358 c 2.52815,-0.507847 4.199562,-2.300591 4.797677,-5.145957 0.08653,-0.411641 0.110635,-0.805646 0.107062,-1.75 -0.0055,-1.444019 -0.03834,-1.886039 -0.183286,-2.4639817 C 18.25936,7.0468717 16.503631,5.4998089 13.842386,4.925234 13.114831,4.7681515 11.167452,4.7705772 10.438646,4.9294737 7.6244837,5.5430264 5.7835997,7.1889582 5.2566384,9.5626996 c -0.061377,0.2764759 -0.09714,0.7408724 -0.096418,1.2519954 0.00566,4.002413 3.2380756,7.652123 7.0764374,7.989976 0.44084,0.0388 1.361112,-0.02281 1.871193,-0.125269 z"
         id="path3634"
         inkscape:connector-curvature="0"
         transform="translate(30.272035,13.854189)" /></g><g
       id="g3435"
       transform="matrix(0.45751909,0,0,0.46161772,0.29200384,27.747939)"><path
         class="st0"
         d="M 40.734444,22.827934 C 41.839252,30.94492 38.90736,39.175743 30.166355,40.966606 21.497599,42.742668 13.213558,36.250393 11.148823,27.815241 6.0448942,6.9639301 41.700542,4.7827721 40.863007,24.858358 c -0.0604,1.44785 2.189712,1.445038 2.25,0 C 43.583752,13.574679 33.951523,8.0462361 23.655374,8.6636486 13.634235,9.2645683 7.0523419,16.993467 8.7005072,27.002932 10.237787,36.338978 19.371576,45.015564 29.097838,43.450687 40.121743,41.677033 44.33479,32.741215 42.904073,22.229793 42.709679,20.801598 40.541409,21.409698 40.734444,22.827934 l 0,0 z"
         id="path3437"
         inkscape:connector-curvature="0"
         style="fill:#231f20" /></g><g
       id="g3439"
       transform="matrix(0.45751909,0,0,0.46161772,0.29200384,27.747939)"><path
         class="st0"
         d="m 46.72456,23.181013 c 0.798877,5.898762 0.125198,12.337618 -4.461464,16.555998 -3.95417,3.636673 -7.712959,7.651691 -13.362612,7.895451 -2.15216,0.09285 -4.832092,0.0068 -6.947203,-0.391285 C 17.54137,46.410824 16.119326,44.52198 13.300951,41.709534 11.620306,40.032421 9.8084698,38.419499 8.2380791,36.638145 6.0859762,34.196938 5.6394882,31.456715 5.4150544,28.317993 5.2787948,26.412399 4.9366771,24.248772 5.1733976,22.349615 5.7166095,17.991547 8.0741015,16.183033 10.884341,13.46629 14.85321,9.6294641 18.11371,6.4742222 23.741371,5.6054749 c 5.564995,-0.8590736 11.729061,-0.4972301 16.155701,3.396194 3.576172,3.1454001 6.632572,9.1479451 7.100983,13.8778401 0.14138,1.427589 2.392826,1.442223 2.25,0 C 47.974426,10.018785 37.517143,1.8065337 24.971117,3.1853123 17.761944,3.9775834 14.37728,6.9605427 9.2933502,11.875299 c -2.0958714,2.026129 -4.876667,4.155302 -5.9431267,6.984108 -1.2296591,3.261698 -0.3715551,7.801135 -0.048084,11.159947 0.6779702,7.039804 5.6238942,10.550825 10.4574495,15.326487 4.704098,4.647754 11.073786,5.25566 17.59016,4.41394 2.497471,-0.322598 4.416145,-1.320786 6.322777,-2.95977 2.52137,-2.167431 5.542736,-4.47316 7.712284,-6.973004 3.994129,-4.602203 4.284561,-11.520309 3.509376,-17.244135 -0.193426,-1.428238 -2.361692,-0.820055 -2.169626,0.598141 l 0,0 z"
         id="path3441"
         inkscape:connector-curvature="0"
         style="fill:#231f20" /><path
         style="fill:#f9f9f9;fill-opacity:1"
         d="m 11.860666,23.400711 c -0.117463,-0.0924 -0.172956,-0.200773 -0.186513,-0.364259 -0.01727,-0.208259 -0.03902,-0.234449 -0.2068,-0.249086 C 9.8592464,22.647077 8.3006777,22.059739 7.2173527,21.185775 6.4186377,20.541419 3.7575205,17.868419 3.290335,17.241223 2.7408002,16.503473 2.2261288,15.46507 2.0357518,14.709973 1.9534181,14.38341 1.8363327,13.659191 1.7755619,13.100598 l -0.1104921,-1.015625 -0.3363373,0 c -0.53124702,0 -0.76369749,-0.176122 -0.76677639,-0.580966 -4.6937e-4,-0.06172 0.0681807,-0.18125 0.15255567,-0.265625 0.12505305,-0.125053 0.21587987,-0.153409 0.49138242,-0.153409 l 0.3379733,0 0.034582,-0.890625 C 1.5979444,9.6922839 1.6565099,9.1401183 1.7126884,8.9287226 1.8693877,8.3390758 2.2714169,7.5955808 2.7096574,7.0849726 3.1528102,6.5686414 5.6638284,4.1737639 6.4620769,3.5061121 7.9325371,2.2762254 9.3815045,1.6027418 11.145176,1.329397 l 0.490324,-0.075993 -0.0146,-0.44359054 c -0.008,-0.24397475 -0.01071,-0.49416695 -0.006,-0.55598262 0.0106,-0.13766451 0.33895,-0.28506948 0.546588,-0.24537704 0.205524,0.03928839 0.399412,0.2999383 0.400254,0.53807285 3.75e-4,0.10708294 0.01752,0.29644231 0.03809,0.4207985 l 0.0374,0.22610215 0.91504,0.035226 c 1.444492,0.055608 2.530617,0.3311132 3.85254,0.9772292 0.974344,0.4762295 1.722177,1.0112385 2.498139,1.7872012 1.244771,1.2447706 2.112491,2.7905739 2.588946,4.6120846 0.20581,0.7868231 0.334656,1.7715777 0.252002,1.9260177 -0.04171,0.07794 -0.05332,0.241088 -0.02878,0.404685 l 0.0411,0.274102 0.397884,0 c 0.355398,0 0.411716,0.01758 0.52742,0.164678 0.327463,0.416302 0.01154,0.835322 -0.62979,0.835322 -0.229572,0 -0.240739,0.0094 -0.242092,0.203125 -0.0039,0.556132 -0.134024,1.79723 -0.246155,2.347465 -0.335012,1.643933 -0.885698,2.69732 -2.027847,3.878994 -0.509526,0.527158 -2.773729,2.510149 -3.41208,2.988301 -1.063676,0.79674 -1.92187,1.065415 -3.765625,1.178903 l -0.734375,0.0452 0,0.17208 c 0,0.39257 -0.456315,0.617856 -0.762936,0.376667 l 1e-6,0 z m 2.794187,-1.811625 c 0.965333,-0.25057 2.05893,-0.870463 3.141372,-1.780652 0.881468,-0.741196 2.373109,-2.208813 2.675098,-2.632013 0.792143,-1.110089 1.33978,-2.929149 1.33978,-4.450288 l 0,-0.499047 -0.419455,-0.03367 c -0.332366,-0.02668 -0.442667,-0.06233 -0.53125,-0.17173 -0.152818,-0.188723 -0.141922,-0.490338 0.0241,-0.66706 0.112586,-0.119842 0.199825,-0.144653 0.508621,-0.144653 l 0.372726,0 -0.04242,-0.4681 c -0.02494,-0.275215 -0.01708,-0.515438 0.01907,-0.582984 C 21.877285,9.9070276 21.376368,8.1743676 20.853425,7.083627 19.690647,4.6583328 18.174239,3.1873337 16.186103,2.5560673 15.337103,2.2864958 14.84817,2.2091262 13.732978,2.1678809 l -1.046875,-0.038719 0,0.2819764 c 0,0.39423 -0.177566,0.6113339 -0.5,0.6113339 -0.304565,0 -0.5,-0.2197752 -0.5,-0.5622704 l 0,-0.232913 -0.484375,0.078427 C 9.6052008,2.5642148 8.4221189,3.1318712 6.9986027,4.3224244 6.1475631,5.0341885 3.9723134,7.1676745 3.6109163,7.6450695 3.2466964,8.1261926 2.914255,8.7851889 2.7741816,9.3037226 2.7184666,9.5099726 2.6582547,9.9951289 2.6403774,10.381848 l -0.032504,0.703125 0.3203648,0 c 0.4065624,0 0.5703647,0.142291 0.5703647,0.495463 0,0.312725 -0.2170517,0.504537 -0.5709287,0.504537 -0.1517043,0 -0.2414919,0.02906 -0.2413578,0.07813 1.188e-4,0.04297 0.029201,0.401562 0.06463,0.796875 0.1350585,1.506969 0.3857964,2.392271 0.9058547,3.19838 0.2040402,0.316269 0.8099478,0.977335 1.9592226,2.137578 0.9151061,0.92384 1.8693212,1.856688 2.1204774,2.072994 0.5144481,0.443064 1.2085987,0.826814 1.8522531,1.023989 0.5027961,0.154026 1.4447441,0.316444 1.8373341,0.316807 l 0.271236,2.5e-4 -0.04368,-0.524426 c -0.04015,-0.482041 -0.03303,-0.53508 0.08814,-0.65625 0.129432,-0.129432 0.395116,-0.170767 0.597774,-0.093 0.186366,0.07152 0.28405,0.371879 0.28405,0.873416 l 0,0.480946 0.765625,-0.03589 c 0.460025,-0.02157 0.9652,-0.0877 1.265625,-0.165679 l 0,2e-6 z"
         id="path3636"
         inkscape:connector-curvature="0"
         transform="matrix(2.1857011,0,0,2.1662947,-0.63823313,0.5460384)" /><path
         style="fill:#f9f9f9;fill-opacity:1"
         d="m 21.773005,10.986192 c -0.02226,-0.0887 -0.02642,-0.357752 -0.0092,-0.597886 0.01759,-0.24589 -0.0053,-0.6281277 -0.05231,-0.8750577 C 21.483823,8.3185564 20.63788,6.4126763 19.843986,5.305892 19.027848,4.1680966 17.9003,3.216921 16.848718,2.779146 15.871163,2.372189 14.786308,2.1487602 13.779853,2.1471055 13.539228,2.1467098 13.194696,2.1286505 13.014228,2.1069737 l -0.328125,-0.039412 0,-0.429108 0,-0.4291081 0.640625,0.034926 c 1.887409,0.1028981 3.144339,0.4522938 4.609375,1.2812936 1.415111,0.8007498 2.752585,2.1756415 3.582051,3.6822643 0.756601,1.3742726 1.283446,3.3392357 1.191362,4.4433982 l -0.04139,0.496246 -0.427323,0 c -0.407242,0 -0.429226,-0.0076 -0.467803,-0.161281 z"
         id="path3638"
         inkscape:connector-curvature="0"
         transform="matrix(2.1857011,0,0,2.1662947,-0.63823313,0.5460384)" /><path
         style="fill:#f9f9f9;fill-opacity:1"
         d="M 11.818193,2.8610412 C 11.70766,2.7205212 11.685607,2.6052395 11.683068,2.154669 c -0.0017,-0.2961455 -0.02603,-0.8196963 -0.05413,-1.16344634 -0.0281,-0.34375 -0.02875,-0.6848298 -0.0014,-0.75795511 0.05885,-0.15753259 0.34127,-0.26689118 0.55296,-0.21411741 0.320452,0.07988753 0.373069,0.25687662 0.445668,1.49911256 0.06395,1.0942403 0.06134,1.1600905 -0.05198,1.3125 -0.179625,0.2415903 -0.577222,0.2575151 -0.755967,0.030278 z"
         id="path3640"
         inkscape:connector-curvature="0"
         transform="matrix(2.1857011,0,0,2.1662947,-0.63823313,0.5460384)" /><path
         style="fill:#f9f9f9;fill-opacity:1"
         d="M 11.818193,2.8610412 C 11.70766,2.7205212 11.685607,2.6052395 11.683068,2.154669 c -0.0017,-0.2961455 -0.02603,-0.8196963 -0.05413,-1.16344634 -0.0281,-0.34375 -0.02875,-0.6848298 -0.0014,-0.75795511 0.05885,-0.15753259 0.34127,-0.26689118 0.55296,-0.21411741 0.320452,0.07988753 0.373069,0.25687662 0.445668,1.49911256 0.06395,1.0942403 0.06134,1.1600905 -0.05198,1.3125 -0.179625,0.2415903 -0.577222,0.2575151 -0.755967,0.030278 z"
         id="path3642"
         inkscape:connector-curvature="0"
         transform="matrix(2.1857011,0,0,2.1662947,-0.63823313,0.5460384)" /></g><g
       id="g3443"
       transform="matrix(0.45751909,0,0,0.46161772,0.29200384,27.747939)"><path
         class="st0"
         d="m 45.708332,26.993969 c 1.555557,0 3.111111,0 4.666668,0 1.447769,0 1.450165,-2.25 0,-2.25 -1.555557,0 -3.111111,0 -4.666668,0 -1.447765,0 -1.450165,2.25 0,2.25 l 0,0 z"
         id="path3445"
         inkscape:connector-curvature="0"
         style="fill:#231f20" /></g><g
       id="g3447"
       transform="matrix(0.45751909,0,0,0.46161772,0.29200384,27.747939)"><path
         class="st0"
         d="m 24.72603,45.704159 c 0.115198,1.582996 0.139858,3.164669 0.07407,4.750461 -0.06007,1.447861 2.190048,1.44508 2.25,0 0.06579,-1.585819 0.04113,-3.167491 -0.07407,-4.750461 -0.104475,-1.435623 -2.355306,-1.447056 -2.25,0 l 0,0 z"
         id="path3449"
         inkscape:connector-curvature="0"
         style="fill:#231f20" /></g><g
       id="g3451"
       transform="matrix(0.45751909,0,0,0.46161772,0.29200384,27.747939)"><path
         class="st0"
         d="m 1.625,26.743969 c 1.4722223,0 2.9444447,0 4.4166665,0 1.4477677,0 1.4501657,-2.25 0,-2.25 -1.4722219,0 -2.9444442,0 -4.4166665,0 -1.4477676,0 -1.4501656,2.25 0,2.25 l 0,0 z"
         id="path3453"
         inkscape:connector-curvature="0"
         style="fill:#231f20" /></g><g
       id="g3455"
       transform="matrix(0.45751909,0,0,0.46161772,0.29200384,27.747939)"><path
         class="st0"
         d="m 24.629572,1.5389909 c 0.133526,1.5244406 0.214601,3.0506759 0.24333,4.5806737 0.02716,1.4460864 2.277244,1.45083 2.25,0 -0.02873,-1.5300074 -0.109806,-3.0562427 -0.24333,-4.5806737 -0.12537,-1.4313229 -2.37653,-1.4445667 -2.25,0 l 0,0 z"
         id="path3457"
         inkscape:connector-curvature="0"
         style="fill:#231f20" /></g><path
       style="fill:#f9f9f9;fill-opacity:1"
       d="M 11.818193,2.8610412 C 11.70766,2.7205212 11.685607,2.6052395 11.683068,2.154669 c -0.0017,-0.2961455 -0.02603,-0.8196963 -0.05413,-1.16344634 -0.0281,-0.34375 -0.02875,-0.6848298 -0.0014,-0.75795511 0.05885,-0.15753259 0.34127,-0.26689118 0.55296,-0.21411741 0.320452,0.07988753 0.373069,0.25687662 0.445668,1.49911256 0.06395,1.0942403 0.06134,1.1600905 -0.05198,1.3125 -0.179625,0.2415903 -0.577222,0.2575151 -0.755967,0.030278 z"
       id="path3644"
       inkscape:connector-curvature="0"
       transform="translate(0,28)" /><path
       style="fill:#f9f9f9;fill-opacity:1"
       d="m 11.857982,23.387621 -0.161015,-0.146398 -0.0287,-1.304859 c -0.02669,-1.213641 -0.02052,-1.313039 0.08832,-1.421875 0.06436,-0.06436 0.199091,-0.117016 0.299405,-0.117016 0.514877,0 0.567612,0.15004 0.567612,1.614972 0,1.314579 -0.02648,1.410067 -0.411678,1.484362 -0.148494,0.02864 -0.230013,0.0035 -0.353943,-0.109186 z"
       id="path3646"
       inkscape:connector-curvature="0"
       transform="translate(0,28)" /><path
       style="fill:#f9f9f9;fill-opacity:1"
       d="m 0.81429638,11.995781 c -0.2836774,-0.1571 -0.33215119,-0.525033 -0.0997846,-0.757399 0.15213894,-0.152139 0.16326459,-0.153409 1.34375002,-0.153409 1.1070076,0 1.1990919,0.0088 1.3153409,0.125 0.1911331,0.191133 0.1704245,0.580196 -0.039679,0.745463 -0.1527227,0.120132 -0.2446091,0.129376 -1.265625,0.127322 -0.8063389,-0.0016 -1.14190337,-0.0249 -1.25400262,-0.08698 z"
       id="path3648"
       inkscape:connector-curvature="0"
       transform="translate(0,28)" /><path
       style="fill:#f9f9f9;fill-opacity:1"
       d="m 21.077277,12.165936 c -0.326291,-0.06292 -0.441841,-0.57786 -0.184021,-0.820069 0.13862,-0.130227 0.197079,-0.135894 1.401714,-0.135894 l 1.25706,0 0.129536,0.164678 c 0.220733,0.280617 0.1225,0.656971 -0.200905,0.769711 -0.179146,0.06245 -2.101923,0.07971 -2.403384,0.02157 z"
       id="path3650"
       inkscape:connector-curvature="0"
       transform="translate(0,28)" /><path
       style="fill:#f9f9f9;fill-opacity:1"
       d="M 11.186103,19.716324 C 8.6718796,19.159335 6.4402157,17.331783 5.1589027,14.780537 4.1466483,12.765018 3.9218232,10.523877 4.5364028,8.5752253 5.290469,6.1843028 7.2306164,4.5152733 9.9505914,3.9176203 10.679971,3.7573556 12.894188,3.7566795 13.748603,3.9164607 c 0.704853,0.1318123 1.88945,0.5174496 2.445805,0.7962156 0.966448,0.4842462 2.02619,1.3678019 2.594106,2.1628265 0.602292,0.8431473 1.018969,1.9743218 1.156702,3.1401582 0.106367,0.900331 0.03295,3.142582 -0.126469,3.862706 -0.690195,3.117674 -2.516446,5.003479 -5.595391,5.777857 -0.750413,0.188734 -2.316704,0.219727 -3.037253,0.0601 z m 3.04573,-1.067369 c 2.515325,-0.60646 4.086652,-2.303356 4.646788,-5.018128 0.219594,-1.06429 0.18314,-3.407807 -0.06836,-4.3946304 C 18.097721,6.4403455 15.27759,4.6489666 11.811103,4.7902523 8.490794,4.9255801 5.9565226,6.7073426 5.3025186,9.3662226 5.1120752,10.140478 5.1093888,11.421625 5.2964249,12.272473 c 0.2497532,1.136158 0.6370656,2.067195 1.2350023,2.96875 1.284564,1.936834 3.1850982,3.184806 5.3734258,3.528421 0.543038,0.08527 1.727565,0.02383 2.32698,-0.120689 z"
       id="path3652"
       inkscape:connector-curvature="0"
       transform="translate(0,28)" /></g></svg>